<svg xmlns="http://www.w3.org/2000/svg" data-name="Layer 1" viewBox="0 0 1000 1000"><rect width="860.06" height="338.09" x="69.97" y="315.76" rx="77.19" ry="77.19" style="fill:#4e148c"/><path d="M225.57 526.55c5.29-.02 9.37 3.89 9.42 9.01.05 4.97-4.08 8.95-9.22 8.91-5.32-.04-9.25-3.93-9.23-9.16.01-5.03 3.85-8.75 9.04-8.77Zm-3.05-21.16c-9.32-21.39-18.69-42.76-28.04-64.14-1.7-3.89-4.67-5.78-8.91-5.72-1.47.02-2.93.04-4.4 0-4.53-.13-7.62 1.87-9.4 6.06-2.81 6.59-5.7 13.14-8.56 19.71-10.19 23.37-20.41 46.72-30.57 70.1-2.24 5.14-.39 10.37 4.21 12.27 4.8 1.99 9.61-.15 11.85-5.31 2.02-4.67 3.98-9.36 5.99-14.03 1.73-4.03 4.74-6.08 9.19-6.05 8.33.05 16.66.01 24.99.01v.05h24.99c7.43-.01 11.61-6.19 8.67-12.95Zm-25.48-2.42c-2.28-.86-4.55-1.75-6.83-2.63-2.32-.9-4.64-1.8-6.97-2.68-.2-.07-.46-.08-.65 0-4.54 1.74-9.09 3.48-13.62 5.27-2.18.86-4.11-.67-4.41-2.64-.13-.85.06-1.63.46-2.37 1.21-2.26 2.42-4.52 3.63-6.79 3.79-7.09 7.59-14.18 11.37-21.28.62-1.16 1.5-1.87 2.75-1.92 1.35-.05 2.33.63 3 1.88 1.23 2.32 2.48 4.64 3.72 6.96 3.75 7.01 7.5 14.03 11.25 21.04.33.61.58 1.24.56 1.97 0 2.34-2.17 3.99-4.26 3.2Zm297.09 34.31 42.17-57.53v11.16l-39.85-55.07h16.52l31.59 43.33-6.52.14 31.45-43.48h15.8l-39.56 54.2V479.6l42.17 57.68h-16.67l-33.62-46.23h6.38l-33.19 46.23z" style="fill:#fff"/><path d="M496.4 435.65h16.52l35.83 49.08-38 52.36h-16.67l38.11-51.99z" style="fill:#f05a2b"/><path fill="#fff" d="M270.997 538.56q-8.822 0-13.674-3.088t-6.764-8.308-1.912-11.836V471.95h-8.822q-3.823 0-3.823-3.382 0-1.912 1.911-2.647t4.926-2.132 6.397-5.073q3.528-3.676 4.925-6.47t2.5-4.41q1.103-1.618 3.308-1.618 2.647 0 3.309 1.911t.662 6.176v10.44h17.791q1.618 0 2.574 1.103t.955 2.573q0 1.323-.955 2.426-.956 1.103-2.574 1.103H263.94v46.759q0 7.646 2.867 10.513t5.955 2.867q4.411 0 6.764-2.058 2.352-2.059 3.75-4.853 1.396-2.793 2.793-4.852t3.897-2.059q3.823 0 3.823 3.53 0 1.176-.736 2.94-.735 1.765-1.47 2.647-3.823 5.735-9.263 8.455-5.441 2.72-11.323 2.72m65.286.001q-15.586 0-24.629-9.043t-9.043-27.864q0-12.94 4.264-21.027t11.837-11.984 17.571-3.896q15.145 0 24.409 8.822 9.263 8.823 9.263 28.085 0 18.821-8.97 27.864-8.969 9.043-24.702 9.043m0-5.882q5.294 0 9.264-2.5t6.249-9.263 2.279-19.262-2.353-19.189-6.396-9.263-9.043-2.573q-4.852 0-8.896 2.573-4.043 2.573-6.47 9.263t-2.426 19.189q0 12.351 2.28 19.115t6.322 9.337 9.19 2.573m136.012-42.935q0-8.676-2.794-11.91t-7.94-3.235q-3.529 0-7.131 2.573t-6.102 6.764-2.5 9.043v35.142q0 6.617-2.206 8.528t-7.057 1.912q-3.53 0-4.706-1.838t-1.176-5.073v-41.906q0-8.676-2.794-11.91t-7.94-3.235q-3.529 0-7.131 2.205t-6.103 6.029-2.5 8.675v36.613q0 6.617-2.205 8.528t-7.058 1.912q-3.529 0-4.705-1.838t-1.176-5.073v-60.58q0-3.53 1.544-4.926 1.543-1.397 4.778-1.397 3.97 0 6.25 3.088t2.279 9.557v1.03h.294q3.676-5.882 8.675-9.779 5-3.896 14.116-3.896 15.733 0 18.233 15.145h.294q2.5-3.97 5.514-7.425 3.014-3.456 7.278-5.588 4.265-2.132 10.293-2.132 9.852 0 14.337 5.661t4.484 16.542v44.7q0 3.235-1.176 5.073t-4.705 1.838q-4.853 0-7.058-2.72t-2.206-9.337Zm187.659 8.381v30.878q0 5.294-2.279 7.426t-6.837 2.132q-6.764 0-6.764-7.352v-89.547q0-4.117 1.544-5.735 1.544-1.617 4.926-1.617h24.555q3.382 0 8.455.367 5.073.368 10.514 1.838t10.219 4.706q4.779 3.234 7.72 8.895t2.94 14.63q0 9.117-4.264 16.763t-13.086 12.131-22.35 4.485Zm0-56.022v48.229H675.1q10.587 0 16.91-6.029 6.323-6.028 6.323-19.556 0-10.293-5.073-16.469-5.073-6.175-18.16-6.175Zm107.191 82.489q-4.853 7.205-11.102 10.587t-14.777 3.382q-11.175 0-16.69-5.514-5.513-5.514-5.513-14.336 0-4.706 1.617-9.337 1.618-4.632 5.735-8.308t11.322-5.882 18.38-2.205h10.734v-4.118q0-10.145-3.456-14.189-3.455-4.043-11.248-4.043-4.559 0-7.72 1.911t-5.22 4.264q-2.205 2.353-4.411 3.75t-4.558 1.397q-2.647 0-3.897-1.544t-1.25-3.456q0-3.088 2.353-4.926t5.735-3.308q4.999-2.059 11.101-3.014 6.102-.956 10.808-.956 10.88 0 16.762 3.014 5.882 3.015 8.16 8.896 2.28 5.882 2.28 14.704v40.29q0 3.234-1.103 5.072t-4.632 1.838q-4.852 0-6.91-3.308-2.06-3.309-2.06-10.514Zm-8.676-25.438q-9.41 0-14.704 2.353-5.293 2.353-7.352 6.323-2.058 3.97-2.058 8.822 0 6.764 3.529 9.41t9.263 2.647q3.676 0 8.308-1.838t8.087-5.66 3.456-9.705v-12.352Zm79.255 38.231q-2.206 5.44-5.073 11.322t-6.543 10.954-8.308 8.161-10.22 3.088q-2.94 0-4.999-1.544t-2.058-3.75q0-3.676 2.205-5.146t5.735-1.47q4.117 0 7.352-1.324 3.235-1.323 5.293-4.117t3.456-6.176 2.72-7.499l-29.114-67.785q-.44-1.03-.588-1.912t-.147-1.47q0-2.5 1.764-3.235t3.676-.735q3.382 0 6.69 2.279 3.31 2.28 5.368 7.573l19.262 48.082h.735l8.823-25.732q2.646-7.793 4.043-12.646 1.397-4.852 2.867-10.293 1.03-3.529 2.794-6.396t5.735-2.867q1.911 0 3.308.735t1.397 2.647q0 1.323-.22 2.132-.221.809-.515 1.838Z"/></svg>